<svg width="42" height="50" viewBox="0 0 42 50" xmlns="http://www.w3.org/2000/svg"><title>Shape</title><path d="M9.23 15.82c.084.951.275 1.892.569 2.805a3.153 3.153 0 0 0 1.21 1.44c.103.581.218 1.063.339 1.493.605 2.16 3.504 6.453 7.372 6.581h.98c4.05-.04 6.985-4.647 7.53-6.58a16.02 16.02 0 0 0 .345-1.494 3.145 3.145 0 0 0 1.24-1.446c.293-.911.481-1.85.564-2.8a4.384 4.384 0 0 0-.382-2.428c.648-6.337-2.142-7.952-3.026-8.295a1.895 1.895 0 0 1-.605-.366c-2.645-2.45-9.236-2.84-12.263.122-.242.235-.522.43-.829.581-.769.384-3.214 2.08-2.663 7.958-.355.76-.487 1.6-.381 2.428zm1.76-1.83a.705.705 0 0 0 .152-.512c-.43-4.1.714-6.203 1.816-6.755a4.766 4.766 0 0 0 1.21-.866c2.385-2.323 8.032-2.039 10.211-.075a3.4 3.4 0 0 0 1.041.65c.46.18 2.712 1.36 2.064 7.035a.7.7 0 0 0 .145.51c.263.545.354 1.15.26 1.743-.07.805-.224 1.6-.46 2.376a1.686 1.686 0 0 1-.853.871.73.73 0 0 0-.423.546c-.091.568-.215 1.13-.37 1.685-.46 1.638-3.093 5.483-6.052 5.512h-.926c-3.117-.098-5.532-3.984-5.968-5.512a15.692 15.692 0 0 1-.363-1.685.73.73 0 0 0-.424-.54 1.662 1.662 0 0 1-.847-.865 11.76 11.76 0 0 1-.466-2.388 2.906 2.906 0 0 1 .254-1.73zm19.508 17.582c-.69-.273-2.003-.755-2.003-.755a5.752 5.752 0 0 1-1.72-1.086l-1.21-1a.13.13 0 0 0-.066-.063c-.708 0-4.007 2.904-5.774 2.933h-.944c-1.75-.058-5.006-2.945-5.714-2.945a.143.143 0 0 0-.097.03l-1.21 1.05c-.5.461-1.082.831-1.72 1.093 0 0-1.21.453-1.912.726-4.576 1.8-9.823 3.85-7.602 12.395 1.162 3.991 14.587 4.81 18.115 4.81h1.356c3.535 0 16.947-.813 18.115-4.81 2.222-8.544-3.002-10.595-7.614-12.378zM19.101 36.22h.382l1.815 6.918a.286.286 0 0 1-.133.296l-1.483 1.11a.626.626 0 0 1-.708 0l-1.519-1.162a.28.28 0 0 1-.127-.29l1.773-6.872zm.188-3.166h.466c.299-.008.596-.05.884-.127l-.684 1.237a.947.947 0 0 1-.648.58.966.966 0 0 1-.654-.58l-.641-1.203c.232.058.469.093.708.105h.569v-.012zm17.365 10.52c-.249.778-2.234 2.004-6.985 2.852a62.45 62.45 0 0 1-9.684.883h-1.344a62.45 62.45 0 0 1-9.684-.883c-4.745-.848-6.718-2.074-6.966-2.852-1.889-7.296 2.1-8.864 6.724-10.682.666-.262 1.876-.709 1.889-.715a7.218 7.218 0 0 0 2.22-1.4l.455-.4.714.47c.642.43 1.247.82 1.816 1.162l1.5 2.811a3.2 3.2 0 0 0 .43.622l-1.87 7.249c-.15.65.098 1.327.642 1.743l1.519 1.161a2.17 2.17 0 0 0 2.59 0l1.483-1.11c.576-.416.84-1.12.672-1.794l-1.906-7.25c.163-.177.305-.372.423-.58l1.574-2.904c.545-.32 1.12-.686 1.725-1.087l.708-.464.442.371a7.235 7.235 0 0 0 2.21 1.377s1.294.482 1.984.75c4.618 1.806 8.607 3.368 6.719 10.67z" fill="#00A1FF" fill-rule="evenodd"/></svg>