<svg width="48" height="50" viewBox="0 0 48 50" xmlns="http://www.w3.org/2000/svg"><title>Shape</title><path d="M28.277 24.247c1.131-.394 1.73-2.038 2.13-3.418.532-1.906.465-3.22-.134-3.944.666-3.615.4-6.31-.865-8.018-.665-.855-1.463-1.25-1.996-1.38a7.83 7.83 0 0 0-2.395-2.104c-1.33-.789-2.794-1.183-4.458-1.183-.266 0-.599 0-.865.066a11.08 11.08 0 0 0-2.129.394c-.798.263-1.53.657-2.262 1.183-.865.526-1.597 1.183-2.262 1.84-1.33 1.315-2.196 2.827-2.529 4.404-.332 1.315-.399 2.695-.066 4.01l-.4.394c-.598.789-.598 2.038-.066 3.878.4 1.315.865 2.63 1.664 3.22.266 1.25.665 2.367 1.197 3.353v2.103c-1.464.723-5.788 2.958-9.98 6.178A7.383 7.383 0 0 0 0 41.073v2.235C0 44.885 1.33 46.2 2.928 46.2h34.464c1.664 0 2.928-1.315 2.928-2.892v-2.235c0-2.3-1.065-4.47-2.861-5.85-4.192-3.22-8.45-5.455-9.98-6.178v-2.563a12.76 12.76 0 0 0 .798-2.235zm-2.062 6.376c.865.394 5.455 2.694 9.98 6.178a5.403 5.403 0 0 1 2.062 4.207v2.234c0 .46-.399.789-.798.789H2.794a.804.804 0 0 1-.798-.789v-2.234c0-1.644.798-3.221 2.063-4.207 4.524-3.484 9.115-5.718 9.98-6.178.466-.263.798-.723.798-1.25v-2.76c0-.197-.066-.394-.133-.526-.599-.986-.998-2.103-1.197-3.418-.067-.394-.4-.723-.799-.854-.133-.131-.466-.592-.865-2.038-.333-1.183-.333-1.708-.266-1.906.333 0 .665-.131.865-.394.2-.263.266-.657.133-.986-.466-1.249-.532-2.498-.133-3.812.266-1.249.998-2.432 2.063-3.484.598-.591 1.197-1.117 1.93-1.577h.066c.598-.395 1.197-.723 1.796-.92a4.522 4.522 0 0 1 1.597-.263c1.53-.132 2.86.131 4.125.854 1.33.723 1.863 1.643 1.863 1.643.2.329.466.526.865.592 0 0 .599.066 1.064.789.533.723 1.265 2.563.333 6.901-.133.46.133.986.599 1.183.067.132.133.657-.266 1.972-.333 1.117-.599 1.643-.732 1.906-.2-.066-.4 0-.599.066-.333.131-.599.46-.665.789-.2 1.051-.466 1.971-.865 2.76-.2 0-.2.132-.2.263v3.22c0 .592.266 1.052.799 1.25z" fill="#00A1FF" fill-rule="evenodd"/></svg>