<svg width="48" height="50" viewBox="0 0 48 50" xmlns="http://www.w3.org/2000/svg"><title>Shape</title><path d="M33.663 23.865c1.347-.47 2.06-2.425 2.535-4.068.634-2.27.554-3.835-.158-4.695.792-4.304.475-7.512-1.03-9.546-.792-1.018-1.743-1.487-2.376-1.644a9.322 9.322 0 0 0-2.852-2.504C28.198.47 26.455 0 24.475 0c-.317 0-.713 0-1.03.078a13.19 13.19 0 0 0-2.534.47c-.95.313-1.822.782-2.693 1.408-1.03.626-1.901 1.409-2.693 2.191-1.584 1.565-2.614 3.365-3.01 5.243-.396 1.565-.475 3.208-.08 4.773l-.475.47c-.712.938-.712 2.425-.079 4.616.475 1.565 1.03 3.13 1.98 3.834.317 1.487.792 2.817 1.426 3.99v2.504c-1.742.861-6.891 3.522-11.881 7.356C1.267 38.576 0 41.158 0 43.897v2.66C0 48.435 1.584 50 3.485 50h41.03C46.495 50 48 48.435 48 46.557v-2.66c0-2.739-1.267-5.321-3.406-6.964-4.99-3.834-10.06-6.495-11.881-7.356v-3.051c.396-.86.713-1.722.95-2.66zm-2.455 7.59c1.03.47 6.495 3.209 11.881 7.356 1.505 1.173 2.456 3.051 2.456 5.007v2.66c0 .549-.476.94-.95.94H3.326a.957.957 0 0 1-.95-.94v-2.66c0-1.956.95-3.834 2.455-5.007 5.386-4.147 10.851-6.808 11.88-7.356.555-.313.951-.86.951-1.486v-3.287c0-.234-.079-.47-.158-.626-.713-1.173-1.188-2.504-1.426-4.069-.079-.469-.475-.86-.95-1.017-.159-.156-.555-.704-1.03-2.425-.396-1.409-.396-2.035-.317-2.27.396 0 .792-.156 1.03-.47.238-.312.317-.782.158-1.173-.554-1.486-.633-2.973-.158-4.538.317-1.487 1.188-2.895 2.455-4.147.713-.704 1.426-1.33 2.297-1.878h.08c.712-.47 1.425-.86 2.138-1.096.634-.234 1.268-.313 1.901-.313 1.822-.156 3.406.157 4.911 1.018 1.584.86 2.218 1.956 2.218 1.956.238.391.554.626 1.03.704 0 0 .712.078 1.267.939.634.86 1.505 3.052.396 8.216-.158.548.158 1.174.713 1.408.079.157.158.783-.317 2.348-.396 1.33-.713 1.956-.871 2.269-.238-.078-.476 0-.713.078a1.352 1.352 0 0 0-.792.94c-.238 1.251-.555 2.347-1.03 3.286-.238 0-.238.156-.238.313v3.834c0 .704.317 1.252.95 1.486z" fill="#00A1FF" fill-rule="evenodd"/></svg>